<?xml version="1.0" encoding="UTF-8" ?>
<!DOCTYPE svg PUBLIC "-//W3C//DTD SVG 1.1//EN" "http://www.w3.org/Graphics/SVG/1.1/DTD/svg11.dtd">
<svg width="298pt" height="86pt" viewBox="0 0 298 86" version="1.1" xmlns="http://www.w3.org/2000/svg">
<g id="#e4a0bfff">
<path fill="#e4a0bf" opacity="1.00" d=" M 27.56 7.46 C 38.48 0.09 52.89 -1.61 65.28 2.80 C 82.15 8.51 94.22 25.64 93.78 43.48 C 92.23 43.35 90.68 43.23 89.13 43.11 C 88.21 40.97 87.30 38.83 86.40 36.69 C 87.22 36.19 88.06 35.70 88.89 35.22 C 88.34 34.45 87.79 33.68 87.24 32.91 C 87.50 31.93 87.76 30.96 88.02 29.99 C 87.20 30.03 85.57 30.12 84.75 30.16 C 84.44 26.46 83.86 22.52 81.36 19.59 C 78.34 15.42 71.79 14.56 67.72 17.69 C 64.22 20.30 61.42 23.93 59.92 28.04 C 58.98 32.18 56.43 35.52 53.40 38.38 C 51.23 41.72 48.43 44.50 45.30 46.94 C 44.07 46.24 42.83 45.54 41.56 44.91 C 40.89 44.70 39.53 44.27 38.85 44.06 C 39.91 45.67 41.05 47.21 42.21 48.75 C 40.33 47.40 38.49 45.97 36.93 44.25 C 36.64 43.94 36.05 43.31 35.75 43.00 C 36.18 42.74 37.04 42.22 37.47 41.96 C 37.85 41.88 38.59 41.71 38.96 41.63 C 38.85 40.97 38.61 39.65 38.50 38.99 C 39.65 39.15 40.81 39.30 41.96 39.45 C 41.84 39.21 41.59 38.75 41.47 38.51 C 39.36 35.62 38.00 32.40 38.57 28.75 C 36.64 25.50 36.43 21.02 32.81 19.09 C 33.47 20.78 34.13 22.46 34.79 24.15 C 31.97 23.47 32.16 21.12 32.48 18.88 C 31.36 17.99 30.23 17.11 29.10 16.23 C 29.23 16.55 29.50 17.17 29.63 17.49 C 26.63 17.71 23.02 17.28 20.68 19.58 C 18.12 22.32 15.90 25.92 16.58 29.83 C 15.36 32.30 14.40 34.88 13.62 37.52 C 11.98 37.51 10.34 37.52 8.70 37.50 C 10.32 25.39 17.31 14.12 27.56 7.46 Z" />
<path fill="#e4a0bf" opacity="1.00" d=" M 175.46 32.70 C 178.03 32.07 178.67 37.34 175.97 36.71 C 173.78 36.49 173.75 33.63 175.46 32.70 Z" />
<path fill="#e4a0bf" opacity="1.00" d=" M 244.18 32.57 C 244.65 32.70 245.58 32.96 246.05 33.09 C 246.44 34.38 246.44 35.71 245.97 36.99 C 243.31 37.06 241.94 34.33 244.18 32.57 Z" />
<path fill="#e4a0bf" opacity="1.00" d=" M 192.91 32.94 C 193.47 32.81 194.60 32.56 195.17 32.43 C 198.62 34.47 195.76 39.18 196.06 42.39 C 197.64 41.44 199.29 40.31 201.25 40.75 C 203.51 41.65 202.47 44.25 202.48 46.09 C 202.13 48.15 203.36 49.96 203.96 51.85 C 202.59 51.80 200.86 52.38 199.92 51.02 C 198.56 49.12 199.84 46.72 200.01 44.66 C 198.42 44.25 197.20 45.43 195.95 46.15 C 195.75 48.04 197.70 52.90 194.13 51.59 C 191.17 50.08 192.48 46.53 193.05 44.03 C 194.21 40.39 193.43 36.61 192.91 32.94 Z" />
<path fill="#e4a0bf" opacity="1.00" d=" M 235.53 35.04 C 235.91 32.48 240.37 32.45 240.88 34.99 C 241.12 36.34 240.32 37.56 239.97 38.82 C 238.47 42.65 238.03 46.79 236.56 50.63 C 235.81 53.15 232.16 53.18 230.71 51.32 C 228.86 49.00 228.94 45.85 228.15 43.10 C 227.56 39.86 225.91 36.98 224.80 33.91 C 227.36 33.21 230.48 34.17 230.95 37.11 C 231.47 40.81 229.94 45.77 234.04 48.01 C 236.18 44.02 235.24 39.36 235.53 35.04 Z" />
<path fill="#e4a0bf" opacity="1.00" d=" M 103.53 34.97 C 103.89 34.63 104.62 33.95 104.98 33.61 C 107.99 35.11 111.48 32.61 114.26 34.68 C 115.46 35.43 116.01 36.76 116.41 38.05 C 113.29 37.68 110.16 37.39 107.02 37.49 C 106.98 38.50 106.89 40.52 106.84 41.53 C 109.20 40.86 111.56 39.84 114.07 39.99 C 115.67 40.81 115.07 42.74 115.30 44.16 C 112.66 44.01 110.04 43.77 107.40 43.69 C 107.53 44.54 107.78 46.24 107.91 47.09 C 110.24 46.92 112.62 45.99 114.95 46.51 C 116.24 47.70 116.14 49.93 115.16 51.23 C 112.82 51.32 110.50 50.98 108.18 50.80 C 106.41 52.80 102.85 51.88 102.78 49.05 C 102.75 44.32 105.20 39.70 103.53 34.97 Z" />
<path fill="#e4a0bf" opacity="1.00" d=" M 209.42 34.77 C 212.03 32.58 216.03 35.47 213.60 38.49 C 215.50 38.63 217.84 39.81 217.19 42.12 C 215.42 42.41 213.63 42.26 211.85 42.26 C 211.45 44.17 210.95 46.16 211.87 48.01 C 213.58 47.96 215.30 47.85 217.01 47.94 C 217.93 49.36 217.04 51.04 216.16 52.21 C 214.01 53.60 211.08 52.30 209.60 50.49 C 207.75 48.55 208.60 45.69 208.95 43.35 C 207.11 44.39 204.68 43.28 204.95 41.00 C 206.59 40.34 208.36 40.16 210.09 39.85 C 209.95 38.15 209.73 36.45 209.42 34.77 Z" />
<path fill="#e4a0bf" opacity="1.00" d=" M 264.42 34.77 C 267.05 32.57 271.00 35.46 268.60 38.50 C 270.44 38.59 273.06 39.91 272.07 42.18 C 270.34 42.37 268.60 42.27 266.86 42.25 C 266.65 44.11 265.49 46.38 267.13 47.91 C 268.75 48.01 270.37 47.88 271.99 47.95 C 272.96 49.37 272.01 51.06 271.14 52.24 C 268.95 53.57 266.06 52.29 264.57 50.46 C 262.75 48.52 263.60 45.68 263.95 43.36 C 262.60 43.98 261.40 43.81 260.34 42.86 C 258.73 39.80 263.35 40.49 265.09 39.85 C 264.96 38.15 264.73 36.45 264.42 34.77 Z" />
<path fill="#e4a0bf" opacity="1.00" d=" M 144.03 39.28 C 145.26 38.52 146.18 36.52 147.86 36.84 C 150.05 37.00 149.68 39.76 150.25 41.22 C 152.46 40.03 155.70 38.17 157.47 41.10 C 158.06 44.57 153.02 42.48 151.53 44.57 C 149.43 46.66 151.27 49.82 150.35 52.28 C 149.13 53.99 146.78 52.43 146.12 50.95 C 145.34 47.81 147.74 44.96 147.45 41.86 C 147.18 40.21 145.19 40.06 144.03 39.28 Z" />
<path fill="#e4a0bf" opacity="1.00" d=" M 117.56 38.72 C 118.73 38.22 120.47 37.38 121.51 38.60 C 123.65 40.71 121.18 44.52 124.03 46.27 C 124.97 44.07 125.44 41.66 126.66 39.59 C 127.57 37.73 131.12 37.62 131.31 40.03 C 131.00 41.58 129.49 42.42 128.60 43.61 C 126.32 45.87 126.13 49.22 125.05 52.06 C 122.54 53.55 120.45 50.36 120.46 48.11 C 120.33 44.76 119.73 41.40 117.56 38.72 Z" />
<path fill="#e4a0bf" opacity="1.00" d=" M 134.38 50.54 C 130.54 46.78 132.65 37.34 138.98 38.30 C 142.92 38.47 143.89 43.98 141.46 46.47 C 139.55 47.98 136.97 47.32 134.76 47.57 C 136.72 50.83 140.26 48.65 143.19 48.80 C 142.81 53.27 136.76 53.56 134.38 50.54 M 135.31 43.57 C 136.66 44.09 138.07 45.37 139.50 44.33 C 140.67 44.03 140.74 41.93 139.50 41.60 C 137.82 40.49 136.48 42.66 135.31 43.57 Z" />
<path fill="#e4a0bf" opacity="1.00" d=" M 158.55 39.62 C 159.50 38.64 160.60 37.86 162.03 37.89 C 162.27 38.48 162.75 39.65 162.98 40.23 C 165.54 39.41 168.74 36.91 171.27 39.04 C 171.88 41.36 171.15 43.74 171.06 46.08 C 170.89 48.23 173.14 49.88 172.68 52.02 C 170.68 54.10 167.87 51.16 167.78 48.99 C 167.11 46.37 169.52 43.57 167.81 41.19 C 166.38 41.41 164.87 41.69 163.70 42.61 C 162.39 45.41 163.23 48.67 162.54 51.64 C 160.92 53.62 157.93 51.10 159.15 49.00 C 160.05 45.85 160.37 42.53 158.55 39.62 Z" />
<path fill="#e4a0bf" opacity="1.00" d=" M 174.24 37.87 C 174.97 37.95 176.44 38.11 177.18 38.19 C 178.33 39.54 177.27 41.39 177.38 42.96 C 177.01 46.10 177.82 49.20 178.13 52.31 C 176.44 52.47 173.71 52.41 173.75 50.09 C 174.21 46.03 175.30 41.93 174.24 37.87 Z" />
<path fill="#e4a0bf" opacity="1.00" d=" M 242.81 38.03 C 243.64 38.08 245.29 38.19 246.11 38.25 C 246.91 40.04 245.99 42.04 246.05 43.91 C 245.67 46.70 247.15 49.51 246.48 52.23 C 244.95 53.01 242.37 51.97 242.51 50.02 C 242.83 46.04 244.30 41.95 242.81 38.03 Z" />
<path fill="#e4a0bf" opacity="1.00" d=" M 249.98 44.97 C 247.30 40.09 256.21 34.91 258.82 40.02 L 258.61 41.32 C 256.44 41.01 251.53 39.96 252.35 43.71 C 254.14 45.32 257.70 44.46 258.53 47.33 C 260.91 53.33 247.81 55.41 248.74 48.84 C 250.65 48.81 254.71 50.18 254.85 47.20 C 253.55 45.90 251.55 45.80 249.98 44.97 Z" />
<path fill="#e4a0bf" opacity="1.00" d=" M 14.89 42.95 C 15.71 40.64 17.96 39.54 19.86 38.28 C 18.73 40.69 17.87 43.23 17.23 45.81 C 18.42 45.16 19.60 44.50 20.75 43.80 C 21.01 44.31 21.52 45.33 21.77 45.84 C 21.50 46.70 21.23 47.57 20.96 48.44 C 19.71 49.51 18.47 50.59 17.24 51.69 C 16.56 52.29 15.89 52.89 15.21 53.50 C 14.83 53.12 14.06 52.34 13.68 51.96 C 13.73 50.54 13.78 49.13 13.75 47.72 L 13.07 47.23 C 13.67 45.80 14.26 44.36 14.89 42.95 Z" />
<path fill="#e4a0bf" opacity="1.00" d=" M 179.98 42.94 C 180.36 39.27 184.78 38.11 187.92 38.47 C 189.91 38.13 190.76 40.43 190.43 42.01 C 189.88 45.66 189.10 49.34 189.87 53.03 C 190.95 59.23 178.50 58.90 179.75 52.63 C 181.74 53.25 183.72 54.10 185.85 53.96 C 186.62 51.92 187.13 49.81 187.59 47.69 C 184.21 49.85 179.20 47.04 179.98 42.94 M 183.39 43.51 C 183.87 45.53 185.91 45.75 187.64 45.87 C 187.74 44.25 187.81 42.63 187.85 41.01 C 186.07 40.92 183.59 41.32 183.39 43.51 Z" />
<path fill="#e4a0bf" opacity="1.00" d=" M 275.37 41.41 C 277.40 38.40 281.73 37.89 284.96 38.88 C 287.88 40.94 284.33 44.69 285.22 47.59 C 286.53 48.89 288.16 50.15 288.17 52.20 C 286.30 52.35 284.44 52.15 282.83 51.13 C 281.06 52.05 278.99 53.08 277.04 51.97 C 273.75 49.67 273.49 44.69 275.37 41.41 M 279.26 42.13 C 276.70 43.31 274.50 48.02 277.95 49.40 C 281.19 50.33 281.19 46.05 281.98 43.98 C 283.21 41.85 280.77 40.54 279.26 42.13 Z" />
<path fill="#e4a0bf" opacity="1.00" d=" M 83.39 64.52 C 84.48 65.27 85.62 65.95 86.74 66.65 C 83.59 71.20 79.72 75.33 75.08 78.39 L 73.82 78.44 C 74.58 75.37 75.36 72.31 75.84 69.19 C 78.26 67.48 80.78 65.93 83.39 64.52 Z" />
</g>
<g id="#262626ff">
<path fill="#262626" opacity="1.00" d=" M 29.10 16.23 C 30.23 17.11 31.36 17.99 32.48 18.88 C 32.16 21.12 31.97 23.47 34.79 24.15 C 34.13 22.46 33.47 20.78 32.81 19.09 C 36.43 21.02 36.64 25.50 38.57 28.75 C 38.41 28.54 38.09 28.13 37.93 27.92 C 35.79 25.64 33.25 23.80 30.42 22.48 C 30.49 21.85 30.63 20.57 30.70 19.93 C 30.43 19.32 29.90 18.10 29.63 17.49 C 29.50 17.17 29.23 16.55 29.10 16.23 Z" />
<path fill="#262626" opacity="1.00" d=" M 16.58 29.83 C 16.61 30.32 16.68 31.30 16.71 31.79 L 16.77 32.62 C 15.97 34.97 15.13 37.30 14.37 39.66 C 17.05 38.26 19.76 36.93 22.60 35.89 C 22.24 36.24 21.51 36.95 21.15 37.30 C 20.83 37.54 20.19 38.03 19.86 38.28 C 17.96 39.54 15.71 40.64 14.89 42.95 C 14.69 42.32 14.29 41.05 14.08 40.42 C 13.29 40.68 12.49 40.95 11.70 41.22 C 10.71 39.97 9.70 38.74 8.70 37.50 C 10.34 37.52 11.98 37.51 13.62 37.52 C 14.40 34.88 15.36 32.30 16.58 29.83 M 12.38 38.38 C 12.89 38.95 12.89 38.95 12.38 38.38 Z" />
<path fill="#262626" opacity="1.00" d=" M 75.47 31.09 C 76.53 31.57 77.58 32.05 78.61 32.57 C 78.69 32.99 78.85 33.84 78.92 34.26 C 78.10 33.98 76.46 33.41 75.64 33.13 L 75.39 33.01 C 75.41 32.53 75.45 31.57 75.47 31.09 Z" />
<path fill="#262626" opacity="1.00" d=" M 30.70 43.57 C 31.56 42.75 32.55 42.62 33.67 43.16 C 35.14 45.20 30.86 45.51 30.70 43.57 Z" />
<path fill="#262626" opacity="1.00" d=" M 36.93 44.25 C 38.49 45.97 40.33 47.40 42.21 48.75 C 41.05 47.21 39.91 45.67 38.85 44.06 C 39.53 44.27 40.89 44.70 41.56 44.91 C 42.72 45.94 43.82 47.02 44.92 48.10 C 44.00 48.87 43.08 49.64 42.16 50.41 C 42.39 51.70 42.63 52.99 42.86 54.27 L 42.68 54.41 C 42.25 54.38 41.40 54.32 40.98 54.29 C 41.10 53.61 41.36 52.25 41.48 51.57 C 41.36 51.19 41.11 50.41 40.99 50.03 C 39.34 49.02 37.65 48.02 35.78 47.50 L 35.33 48.12 C 35.40 48.33 35.53 48.77 35.60 48.98 C 35.75 49.74 36.06 51.24 36.21 51.99 C 34.56 51.83 33.80 52.59 33.94 54.28 L 33.31 55.16 L 32.92 54.84 C 32.38 54.08 31.85 53.32 31.32 52.56 C 32.43 51.73 33.54 50.90 34.65 50.07 C 33.70 50.01 31.80 49.89 30.85 49.83 L 30.58 49.34 C 32.99 48.04 34.99 46.15 36.93 44.25 Z" />
<path fill="#262626" opacity="1.00" d=" M 27.14 50.10 L 27.47 49.78 C 27.97 50.41 28.95 51.68 29.45 52.32 C 29.24 52.69 28.83 53.43 28.62 53.79 C 28.92 53.88 29.53 54.04 29.84 54.13 C 29.71 54.56 29.46 55.42 29.34 55.85 C 29.14 57.24 29.32 58.59 29.90 59.88 C 30.13 60.32 30.59 61.20 30.82 61.64 C 31.71 63.34 32.66 65.01 33.78 66.57 C 33.96 66.81 34.31 67.30 34.49 67.55 C 34.83 65.28 35.09 63.00 35.39 60.72 C 36.29 63.17 37.03 65.69 37.47 68.27 C 37.73 70.18 38.23 72.07 39.00 73.84 L 39.38 74.74 C 38.80 75.40 38.22 76.06 37.64 76.72 C 37.19 75.15 37.17 73.14 35.24 72.69 C 34.96 74.77 34.73 76.86 34.52 78.96 C 34.35 76.72 34.34 74.44 33.74 72.26 C 32.88 70.50 31.34 69.22 30.07 67.78 C 29.87 67.48 29.45 66.89 29.25 66.59 L 29.28 65.88 C 29.93 63.06 28.81 60.57 26.61 58.79 C 26.39 56.79 26.62 54.57 25.22 52.92 C 26.03 52.10 26.67 51.16 27.14 50.10 Z" />
<path fill="#262626" opacity="1.00" d=" M 21.95 52.22 C 22.87 53.45 23.62 54.82 23.61 56.41 C 23.35 56.68 22.82 57.24 22.56 57.52 C 22.15 57.87 21.34 58.58 20.93 58.94 L 21.56 58.28 C 23.29 56.62 21.86 54.20 21.95 52.22 Z" />
<path fill="#262626" opacity="1.00" d=" M 23.47 60.91 C 24.64 61.46 26.22 61.73 26.77 63.06 C 26.46 63.61 25.84 64.70 25.53 65.25 C 24.38 64.07 23.89 62.45 23.47 60.91 Z" />
</g>
<g id="#e0dfdeff">
<path fill="#e0dfde" opacity="1.00" d=" M 67.72 17.69 C 71.79 14.56 78.34 15.42 81.36 19.59 C 83.86 22.52 84.44 26.46 84.75 30.16 C 84.05 31.41 84.42 34.63 82.38 33.96 C 81.71 32.29 81.22 30.56 80.70 28.84 C 79.99 30.08 79.28 31.31 78.61 32.57 C 77.58 32.05 76.53 31.57 75.47 31.09 C 75.45 31.57 75.41 32.53 75.39 33.01 L 75.64 33.13 C 76.64 33.84 77.63 34.56 78.61 35.29 C 77.95 36.27 77.40 37.31 76.71 38.27 C 75.45 39.28 74.15 40.25 72.82 41.17 C 70.80 41.57 68.69 41.44 67.12 39.97 C 66.26 38.61 65.46 37.20 64.66 35.81 C 64.86 35.34 65.26 34.39 65.47 33.92 C 64.50 31.36 63.67 28.76 62.96 26.12 C 61.95 26.76 60.93 27.40 59.92 28.04 C 61.42 23.93 64.22 20.30 67.72 17.69 M 66.92 22.01 C 68.42 21.52 69.92 21.00 71.40 20.47 L 71.58 20.12 C 73.40 19.90 75.22 19.53 77.06 19.61 C 78.52 20.45 79.72 21.65 81.09 22.61 C 80.37 19.63 77.81 18.06 74.93 17.61 C 71.39 16.02 68.20 18.88 66.92 22.01 M 70.00 27.03 C 68.60 26.77 66.81 24.99 65.55 26.36 C 65.33 27.04 64.88 28.42 64.65 29.10 C 66.04 28.79 67.38 27.51 68.85 28.04 C 70.68 29.25 72.34 30.71 74.12 31.99 C 72.34 28.79 69.89 25.64 71.38 21.80 C 69.79 23.03 70.36 25.30 70.00 27.03 M 65.26 30.35 C 64.29 32.22 68.73 32.96 69.22 31.30 C 68.64 29.85 66.47 29.54 65.26 30.35 M 68.89 37.17 C 67.73 38.75 70.69 39.89 71.76 38.87 C 72.77 37.37 69.93 36.28 68.89 37.17 Z" />
</g>
<g id="#ebe5e9ff">
<path fill="#ebe5e9" opacity="1.00" d=" M 20.68 19.58 C 23.02 17.28 26.63 17.71 29.63 17.49 C 29.90 18.10 30.43 19.32 30.70 19.93 C 30.63 20.57 30.49 21.85 30.42 22.48 C 33.25 23.80 35.79 25.64 37.93 27.92 C 37.39 28.38 36.32 29.30 35.79 29.76 C 34.54 28.85 33.29 27.93 32.05 27.01 C 30.88 27.89 29.72 28.77 28.56 29.66 C 29.96 29.47 31.36 29.28 32.77 29.09 C 33.30 30.44 33.84 31.78 34.39 33.12 C 33.98 34.18 33.60 35.23 33.15 36.27 C 32.82 36.72 32.17 37.62 31.85 38.07 C 31.16 38.68 30.46 39.29 29.75 39.89 C 29.09 39.82 27.77 39.67 27.11 39.59 C 25.95 39.26 24.81 38.87 23.68 38.48 C 23.45 37.80 22.99 36.43 22.76 35.75 C 23.47 35.11 24.16 34.46 24.84 33.80 L 25.14 32.85 C 26.66 32.80 28.18 32.79 29.70 32.69 C 30.11 32.57 30.95 32.34 31.37 32.23 C 34.37 31.73 31.77 29.47 30.13 31.12 C 29.65 31.23 28.70 31.46 28.22 31.57 C 26.91 30.40 25.60 29.24 24.29 28.07 C 24.37 29.04 24.46 30.01 24.54 30.98 C 23.33 30.67 22.12 30.36 20.91 30.05 C 20.90 31.35 20.89 32.66 20.89 33.97 C 20.39 33.05 19.90 32.13 19.41 31.21 C 18.68 32.07 17.94 32.94 17.20 33.80 L 16.77 32.62 L 16.71 31.79 C 16.68 31.30 16.61 30.32 16.58 29.83 C 15.90 25.92 18.12 22.32 20.68 19.58 M 29.34 36.36 C 28.25 35.93 26.29 37.78 28.05 38.29 C 29.20 38.84 31.16 36.78 29.34 36.36 Z" />
</g>
<g id="#b6c4bfff">
<path fill="#b6c4bf" opacity="1.00" d=" M 66.92 22.01 C 68.20 18.88 71.39 16.02 74.93 17.61 C 74.34 17.76 73.17 18.06 72.58 18.21 C 72.33 18.69 71.83 19.64 71.58 20.12 L 71.40 20.47 C 69.92 21.00 68.42 21.52 66.92 22.01 Z" />
</g>
<g id="#6d6774ff">
<path fill="#6d6774" opacity="1.00" d=" M 72.58 18.21 C 73.17 18.06 74.34 17.76 74.93 17.61 C 77.81 18.06 80.37 19.63 81.09 22.61 C 79.72 21.65 78.52 20.45 77.06 19.61 C 75.22 19.53 73.40 19.90 71.58 20.12 C 71.83 19.64 72.33 18.69 72.58 18.21 Z" />
<path fill="#6d6774" opacity="1.00" d=" M 42.86 54.27 C 43.55 53.68 44.22 53.08 44.89 52.46 C 45.19 52.72 45.81 53.23 46.11 53.49 C 46.13 55.62 46.19 57.75 46.15 59.89 C 44.36 62.11 42.49 64.29 40.91 66.67 C 40.22 68.56 39.78 70.53 39.28 72.48 C 39.21 72.82 39.07 73.50 39.00 73.84 C 38.23 72.07 37.73 70.18 37.47 68.27 C 37.54 67.65 37.68 66.42 37.75 65.80 C 40.23 67.38 40.80 62.73 38.04 63.99 C 38.77 60.69 39.91 57.50 40.98 54.29 C 41.40 54.32 42.25 54.38 42.68 54.41 L 42.86 54.27 M 43.09 57.36 C 41.70 60.41 46.42 57.35 43.09 57.36 Z" />
<path fill="#6d6774" opacity="1.00" d=" M 51.45 75.94 C 49.17 73.67 49.29 70.24 49.19 67.27 C 50.18 69.24 50.96 71.31 51.35 73.49 C 51.48 74.13 51.73 75.41 51.85 76.05 C 52.88 75.67 53.91 75.30 54.94 74.93 C 55.27 75.17 55.94 75.66 56.27 75.90 C 53.26 78.71 51.06 82.20 48.96 85.71 C 48.31 85.63 47.01 85.46 46.36 85.37 C 50.05 84.20 51.33 80.19 53.73 77.55 L 52.33 76.19 C 52.15 76.74 51.78 77.83 51.59 78.38 C 50.24 78.65 48.93 79.05 47.63 79.51 C 48.93 78.35 50.21 77.16 51.45 75.94 Z" />
</g>
<g id="#c3bec0ff">
<path fill="#c3bec0" opacity="1.00" d=" M 70.00 27.03 C 70.36 25.30 69.79 23.03 71.38 21.80 C 69.89 25.64 72.34 28.79 74.12 31.99 C 72.34 30.71 70.68 29.25 68.85 28.04 C 67.38 27.51 66.04 28.79 64.65 29.10 C 64.88 28.42 65.33 27.04 65.55 26.36 C 66.81 24.99 68.60 26.77 70.00 27.03 Z" />
</g>
<g id="#b8b4baff">
<path fill="#b8b4ba" opacity="1.00" d=" M 59.92 28.04 C 60.93 27.40 61.95 26.76 62.96 26.12 C 63.67 28.76 64.50 31.36 65.47 33.92 C 65.26 34.39 64.86 35.34 64.66 35.81 C 63.45 38.76 62.22 41.74 60.33 44.34 C 60.58 41.52 60.88 38.71 61.16 35.90 C 58.79 39.82 55.20 42.66 51.52 45.27 C 48.83 45.46 46.74 47.22 45.04 49.16 C 45.11 48.60 45.24 47.50 45.30 46.94 C 48.43 44.50 51.23 41.72 53.40 38.38 C 56.43 35.52 58.98 32.18 59.92 28.04 Z" />
</g>
<g id="#d1b1cdff">
<path fill="#d1b1cd" opacity="1.00" d=" M 32.05 27.01 C 33.29 27.93 34.54 28.85 35.79 29.76 C 36.32 29.30 37.39 28.38 37.93 27.92 C 38.09 28.13 38.41 28.54 38.57 28.75 C 38.00 32.40 39.36 35.62 41.47 38.51 C 40.04 38.52 38.60 38.53 37.16 38.54 C 36.39 37.66 35.61 36.79 34.83 35.93 C 35.37 38.08 36.29 40.10 37.47 41.96 C 37.04 42.22 36.18 42.74 35.75 43.00 L 35.26 42.55 L 34.69 42.04 L 34.78 41.52 C 34.27 39.76 33.71 38.01 33.15 36.27 C 33.60 35.23 33.98 34.18 34.39 33.12 C 33.84 31.78 33.30 30.44 32.77 29.09 C 31.36 29.28 29.96 29.47 28.56 29.66 C 29.72 28.77 30.88 27.89 32.05 27.01 Z" />
</g>
<g id="#cdadc1ff">
<path fill="#cdadc1" opacity="1.00" d=" M 24.29 28.07 C 25.60 29.24 26.91 30.40 28.22 31.57 C 28.70 31.46 29.65 31.23 30.13 31.12 C 30.44 31.40 31.06 31.95 31.37 32.23 C 30.95 32.34 30.11 32.57 29.70 32.69 C 28.18 32.79 26.66 32.80 25.14 32.85 C 24.55 31.30 22.18 31.75 21.66 33.13 C 21.99 33.34 22.66 33.74 22.99 33.94 C 23.45 33.91 24.38 33.84 24.84 33.80 C 24.16 34.46 23.47 35.11 22.76 35.75 L 22.60 35.89 C 19.76 36.93 17.05 38.26 14.37 39.66 C 15.13 37.30 15.97 34.97 16.77 32.62 L 17.20 33.80 C 17.94 32.94 18.68 32.07 19.41 31.21 C 19.90 32.13 20.39 33.05 20.89 33.97 C 20.89 32.66 20.90 31.35 20.91 30.05 C 22.12 30.36 23.33 30.67 24.54 30.98 C 24.46 30.01 24.37 29.04 24.29 28.07 Z" />
</g>
<g id="#d1c9caff">
<path fill="#d1c9ca" opacity="1.00" d=" M 78.61 32.57 C 79.28 31.31 79.99 30.08 80.70 28.84 C 81.22 30.56 81.71 32.29 82.38 33.96 C 84.42 34.63 84.05 31.41 84.75 30.16 C 85.57 30.12 87.20 30.03 88.02 29.99 C 87.76 30.96 87.50 31.93 87.24 32.91 C 87.79 33.68 88.34 34.45 88.89 35.22 C 88.06 35.70 87.22 36.19 86.40 36.69 C 86.08 36.90 85.44 37.31 85.12 37.51 C 85.03 37.06 84.84 36.15 84.74 35.69 C 83.71 37.67 82.77 39.69 81.99 41.78 L 81.76 42.36 C 81.58 42.85 81.21 43.81 81.03 44.29 C 83.15 45.54 84.14 47.77 84.59 50.08 C 84.71 50.77 84.94 52.15 85.06 52.83 C 81.61 49.92 79.46 45.94 79.46 41.35 C 77.94 43.44 77.39 45.98 76.68 48.40 C 74.67 45.29 77.59 41.67 76.71 38.27 C 77.40 37.31 77.95 36.27 78.61 35.29 C 77.63 34.56 76.64 33.84 75.64 33.13 C 76.46 33.41 78.10 33.98 78.92 34.26 C 78.85 33.84 78.69 32.99 78.61 32.57 Z" />
</g>
<g id="#a49295ff">
<path fill="#a49295" opacity="1.00" d=" M 65.26 30.35 C 66.47 29.54 68.64 29.85 69.22 31.30 C 68.73 32.96 64.29 32.22 65.26 30.35 Z" />
</g>
<g id="#7e6a6aff">
<path fill="#7e6a6a" opacity="1.00" d=" M 30.13 31.12 C 31.77 29.47 34.37 31.73 31.37 32.23 C 31.06 31.95 30.44 31.40 30.13 31.12 Z" />
</g>
<g id="#2f322fff">
<path fill="#2f322f" opacity="1.00" d=" M 21.66 33.13 C 22.18 31.75 24.55 31.30 25.14 32.85 C 24.60 33.13 23.53 33.67 22.99 33.94 C 22.66 33.74 21.99 33.34 21.66 33.13 Z" />
</g>
<g id="#83051bff">
<path fill="#83051b" opacity="1.00" d=" M 22.99 33.94 C 23.53 33.67 24.60 33.13 25.14 32.85 L 24.84 33.80 C 24.38 33.84 23.45 33.91 22.99 33.94 Z" />
</g>
<g id="#904d58ff">
<path fill="#904d58" opacity="1.00" d=" M 22.60 35.89 L 22.76 35.75 C 22.99 36.43 23.45 37.80 23.68 38.48 C 24.81 38.87 25.95 39.26 27.11 39.59 C 26.95 40.36 26.64 41.90 26.49 42.67 C 26.38 43.15 26.17 44.10 26.06 44.58 C 25.46 42.99 24.86 41.40 24.26 39.81 C 23.84 41.29 23.43 42.78 23.02 44.26 C 24.35 44.88 25.66 45.54 26.94 46.26 C 27.90 45.17 28.85 44.08 29.80 43.00 C 29.70 43.66 29.51 45.00 29.41 45.67 C 29.60 46.20 30.00 47.25 30.20 47.78 C 29.52 48.20 28.17 49.04 27.50 49.46 L 27.39 49.47 C 27.26 49.06 27.01 48.26 26.88 47.86 L 25.03 49.67 C 24.71 49.12 24.08 48.01 23.76 47.46 C 23.85 48.11 24.04 49.39 24.14 50.04 L 22.06 49.22 C 22.13 49.94 22.27 51.36 22.34 52.07 C 20.64 51.97 18.94 51.84 17.24 51.69 C 18.47 50.59 19.71 49.51 20.96 48.44 C 21.23 47.57 21.50 46.70 21.77 45.84 C 21.52 45.33 21.01 44.31 20.75 43.80 C 21.77 41.85 22.38 39.72 22.88 37.58 L 21.15 37.30 C 21.51 36.95 22.24 36.24 22.60 35.89 Z" />
</g>
<g id="#a9716dff">
<path fill="#a9716d" opacity="1.00" d=" M 29.34 36.36 C 31.16 36.78 29.20 38.84 28.05 38.29 C 26.29 37.78 28.25 35.93 29.34 36.36 Z" />
</g>
<g id="#5d5165ff">
<path fill="#5d5165" opacity="1.00" d=" M 34.83 35.93 C 35.61 36.79 36.39 37.66 37.16 38.54 C 38.60 38.53 40.04 38.52 41.47 38.51 C 41.59 38.75 41.84 39.21 41.96 39.45 C 40.81 39.30 39.65 39.15 38.50 38.99 C 38.61 39.65 38.85 40.97 38.96 41.63 C 38.59 41.71 37.85 41.88 37.47 41.96 C 36.29 40.10 35.37 38.08 34.83 35.93 Z" />
<path fill="#5d5165" opacity="1.00" d=" M 81.99 41.78 C 82.77 39.69 83.71 37.67 84.74 35.69 C 84.84 36.15 85.03 37.06 85.12 37.51 C 84.34 38.71 83.68 39.99 83.15 41.32 C 82.86 41.43 82.28 41.66 81.99 41.78 Z" />
<path fill="#5d5165" opacity="1.00" d=" M 8.25 43.90 C 8.38 41.77 8.55 39.64 8.70 37.50 C 9.70 38.74 10.71 39.97 11.70 41.22 C 12.49 40.95 13.29 40.68 14.08 40.42 C 14.29 41.05 14.69 42.32 14.89 42.95 C 14.26 44.36 13.67 45.80 13.07 47.23 C 11.46 46.12 9.85 45.03 8.25 43.90 Z" />
</g>
<g id="#909098ff">
<path fill="#909098" opacity="1.00" d=" M 51.52 45.27 C 55.20 42.66 58.79 39.82 61.16 35.90 C 60.88 38.71 60.58 41.52 60.33 44.34 C 62.22 41.74 63.45 38.76 64.66 35.81 C 65.46 37.20 66.26 38.61 67.12 39.97 C 66.92 40.78 66.52 42.40 66.32 43.21 C 65.50 44.21 64.67 45.22 63.89 46.26 C 61.39 46.45 59.50 48.03 58.04 49.96 C 57.09 49.59 56.14 49.20 55.21 48.79 C 54.34 49.86 53.46 50.93 52.65 52.05 C 52.20 51.73 51.32 51.09 50.88 50.77 C 50.15 50.95 49.42 51.13 48.69 51.32 C 48.43 50.70 47.91 49.47 47.65 48.86 C 48.97 47.69 50.22 46.45 51.52 45.27 M 53.45 47.10 C 52.62 47.41 51.10 49.41 52.55 49.79 C 54.09 49.91 56.07 46.14 53.45 47.10 Z" />
</g>
<g id="#917590ff">
<path fill="#917590" opacity="1.00" d=" M 31.85 38.07 C 32.17 37.62 32.82 36.72 33.15 36.27 C 33.71 38.01 34.27 39.76 34.78 41.52 L 34.69 42.04 C 34.31 42.00 33.54 41.91 33.15 41.86 C 32.71 40.60 32.25 39.34 31.85 38.07 Z" />
</g>
<g id="#a86e69ff">
<path fill="#a86e69" opacity="1.00" d=" M 68.89 37.17 C 69.93 36.28 72.77 37.37 71.76 38.87 C 70.69 39.89 67.73 38.75 68.89 37.17 Z" />
</g>
<g id="#eddddbff">
<path fill="#eddddb" opacity="1.00" d=" M 86.40 36.69 C 87.30 38.83 88.21 40.97 89.13 43.11 C 90.68 43.23 92.23 43.35 93.78 43.48 C 93.60 47.59 93.23 51.75 91.82 55.65 C 87.76 53.28 87.37 48.28 84.99 44.67 C 84.47 44.73 83.43 44.86 82.91 44.92 C 82.52 44.07 82.14 43.22 81.76 42.36 L 81.99 41.78 C 82.28 41.66 82.86 41.43 83.15 41.32 C 83.68 39.99 84.34 38.71 85.12 37.51 C 85.44 37.31 86.08 36.90 86.40 36.69 Z" />
</g>
<g id="#7e767dff">
<path fill="#7e767d" opacity="1.00" d=" M 12.38 38.38 C 12.89 38.95 12.89 38.95 12.38 38.38 Z" />
</g>
<g id="#ae84a9ff">
<path fill="#ae84a9" opacity="1.00" d=" M 19.86 38.28 C 20.19 38.03 20.83 37.54 21.15 37.30 L 22.88 37.58 C 22.38 39.72 21.77 41.85 20.75 43.80 C 19.60 44.50 18.42 45.16 17.23 45.81 C 17.87 43.23 18.73 40.69 19.86 38.28 Z" />
</g>
<g id="#e4bec3ff">
<path fill="#e4bec3" opacity="1.00" d=" M 29.75 39.89 C 30.46 39.29 31.16 38.68 31.85 38.07 C 32.25 39.34 32.71 40.60 33.15 41.86 C 30.93 42.10 28.71 42.37 26.49 42.67 C 26.64 41.90 26.95 40.36 27.11 39.59 C 27.77 39.67 29.09 39.82 29.75 39.89 Z" />
</g>
<g id="#979da5ff">
<path fill="#979da5" opacity="1.00" d=" M 72.82 41.17 C 74.15 40.25 75.45 39.28 76.71 38.27 C 77.59 41.67 74.67 45.29 76.68 48.40 C 77.39 45.98 77.94 43.44 79.46 41.35 C 79.46 45.94 81.61 49.92 85.06 52.83 C 85.98 54.81 86.92 56.78 87.86 58.76 C 85.65 57.47 83.09 57.17 80.58 57.02 C 80.40 57.76 80.20 58.49 80.00 59.22 C 79.59 59.40 78.78 59.76 78.37 59.94 L 77.91 60.16 C 78.94 57.24 78.37 54.11 78.62 51.09 C 77.39 51.60 76.16 52.12 74.92 52.64 C 75.42 53.85 75.56 55.12 75.21 56.39 C 75.48 57.20 75.76 58.01 76.05 58.82 C 74.89 58.35 73.73 57.88 72.57 57.41 C 72.60 58.56 72.14 59.88 73.00 60.85 C 73.61 60.72 74.83 60.45 75.44 60.32 C 74.94 60.88 73.94 61.98 73.44 62.54 C 72.33 61.53 71.63 60.21 71.00 58.87 C 70.96 58.41 70.86 57.49 70.81 57.03 L 70.00 56.74 C 70.09 56.26 70.27 55.29 70.36 54.81 L 70.80 54.46 C 71.42 54.86 72.67 55.68 73.29 56.09 C 73.25 54.87 73.21 53.65 73.16 52.44 C 71.59 52.54 70.02 52.65 68.46 52.78 L 67.62 52.88 C 70.15 51.87 72.69 50.88 75.26 49.97 C 73.82 49.26 72.39 48.55 70.96 47.84 C 71.64 47.17 72.30 46.47 72.94 45.75 C 72.94 45.29 72.93 44.39 72.93 43.94 C 72.91 43.25 72.85 41.87 72.82 41.17 M 79.75 52.04 C 78.74 54.70 82.81 56.54 84.93 56.97 C 84.20 54.88 82.52 51.12 79.75 52.04 Z" />
<path fill="#979da5" opacity="1.00" d=" M 26.77 63.06 C 27.70 64.61 28.25 66.34 28.85 68.04 C 28.95 67.68 29.15 66.95 29.25 66.59 C 29.45 66.89 29.87 67.48 30.07 67.78 C 31.10 71.15 31.90 74.68 31.31 78.22 C 30.32 77.36 29.34 76.50 28.35 75.63 C 28.59 74.41 28.83 73.18 29.07 71.96 C 27.92 70.58 26.74 69.23 25.54 67.90 L 25.69 70.31 L 25.56 69.26 C 25.44 68.01 25.40 66.76 25.45 65.51 L 25.53 65.25 C 25.84 64.70 26.46 63.61 26.77 63.06 Z" />
</g>
<g id="#ebebedff">
<path fill="#ebebed" opacity="1.00" d=" M 23.02 44.26 C 23.43 42.78 23.84 41.29 24.26 39.81 C 24.86 41.40 25.46 42.99 26.06 44.58 C 26.17 44.10 26.38 43.15 26.49 42.67 C 28.71 42.37 30.93 42.10 33.15 41.86 C 33.54 41.91 34.31 42.00 34.69 42.04 L 35.26 42.55 L 35.75 43.00 C 36.05 43.31 36.64 43.94 36.93 44.25 C 34.99 46.15 32.99 48.04 30.58 49.34 C 29.81 49.37 28.27 49.43 27.50 49.46 C 28.17 49.04 29.52 48.20 30.20 47.78 C 30.00 47.25 29.60 46.20 29.41 45.67 C 29.51 45.00 29.70 43.66 29.80 43.00 C 28.85 44.08 27.90 45.17 26.94 46.26 C 25.66 45.54 24.35 44.88 23.02 44.26 M 30.70 43.57 C 30.86 45.51 35.14 45.20 33.67 43.16 C 32.55 42.62 31.56 42.75 30.70 43.57 Z" />
<path fill="#ebebed" opacity="1.00" d=" M 61.54 60.44 C 61.91 59.98 62.67 59.06 63.05 58.60 C 63.04 59.31 63.03 60.73 63.02 61.44 C 63.03 61.95 63.05 62.98 63.06 63.49 C 63.60 63.61 64.69 63.86 65.23 63.98 C 65.67 63.92 66.54 63.81 66.98 63.76 L 66.90 62.95 C 66.83 62.41 66.69 61.33 66.62 60.79 L 66.14 59.82 C 66.59 59.80 67.49 59.74 67.94 59.71 C 68.00 63.51 68.02 67.31 67.98 71.11 C 67.71 70.83 67.17 70.26 66.89 69.98 C 67.19 67.75 64.03 67.73 65.04 70.03 C 64.17 70.78 63.29 71.51 62.46 72.29 C 61.36 73.36 60.37 74.53 59.40 75.71 C 58.87 75.91 57.82 76.33 57.29 76.53 C 56.62 79.74 54.87 82.56 53.84 85.65 C 52.21 85.65 50.59 85.68 48.96 85.71 C 51.06 82.20 53.26 78.71 56.27 75.90 C 55.94 75.66 55.27 75.17 54.94 74.93 C 54.86 74.45 54.69 73.49 54.60 73.01 C 56.35 72.88 58.09 72.74 59.84 72.58 C 58.14 71.60 56.40 70.72 54.63 69.89 C 55.12 66.94 55.87 64.02 57.39 61.43 C 57.87 61.91 58.82 62.89 59.30 63.38 C 60.57 63.07 60.73 61.34 61.54 60.44 M 58.24 67.20 C 57.81 68.82 58.41 69.37 60.03 68.85 C 60.45 67.23 59.86 66.68 58.24 67.20 Z" />
</g>
<g id="#d6a2a2ff">
<path fill="#d6a2a2" opacity="1.00" d=" M 67.12 39.97 C 68.69 41.44 70.80 41.57 72.82 41.17 C 72.85 41.87 72.91 43.25 72.93 43.94 C 70.66 44.58 68.22 44.99 66.32 43.21 C 66.52 42.40 66.92 40.78 67.12 39.97 Z" />
</g>
<g id="#e9c8caff">
<path fill="#e9c8ca" opacity="1.00" d=" M 63.89 46.26 C 64.67 45.22 65.50 44.21 66.32 43.21 C 68.22 44.99 70.66 44.58 72.93 43.94 C 72.93 44.39 72.94 45.29 72.94 45.75 C 72.30 46.47 71.64 47.17 70.96 47.84 C 69.65 49.00 68.26 50.05 66.91 51.15 L 66.57 50.21 C 68.22 48.49 65.15 47.73 65.59 49.97 L 64.62 50.67 C 64.36 49.20 64.12 47.73 63.89 46.26 Z" />
</g>
<g id="#6f7380ff">
<path fill="#6f7380" opacity="1.00" d=" M 81.03 44.29 C 81.21 43.81 81.58 42.85 81.76 42.36 C 82.14 43.22 82.52 44.07 82.91 44.92 C 83.67 46.57 84.28 48.29 84.59 50.08 C 84.14 47.77 83.15 45.54 81.03 44.29 Z" />
<path fill="#6f7380" opacity="1.00" d=" M 58.04 49.96 C 59.50 48.03 61.39 46.45 63.89 46.26 C 64.12 47.73 64.36 49.20 64.62 50.67 C 64.66 51.10 64.74 51.96 64.79 52.39 C 65.32 52.08 66.38 51.46 66.91 51.15 C 68.26 50.05 69.65 49.00 70.96 47.84 C 72.39 48.55 73.82 49.26 75.26 49.97 C 72.69 50.88 70.15 51.87 67.62 52.88 C 67.12 53.06 66.11 53.43 65.61 53.61 C 64.29 53.22 62.99 52.80 61.69 52.37 C 61.37 51.92 60.72 51.01 60.40 50.55 C 59.81 50.41 58.63 50.11 58.04 49.96 Z" />
<path fill="#6f7380" opacity="1.00" d=" M 35.78 47.50 C 37.65 48.02 39.34 49.02 40.99 50.03 C 41.11 50.41 41.36 51.19 41.48 51.57 C 39.72 51.71 37.97 51.86 36.21 51.99 C 36.06 51.24 35.75 49.74 35.60 48.98 C 35.53 48.77 35.40 48.33 35.33 48.12 L 35.78 47.50 Z" />
</g>
<g id="#c7c7d1ff">
<path fill="#c7c7d1" opacity="1.00" d=" M 8.25 43.90 C 9.85 45.03 11.46 46.12 13.07 47.23 L 13.75 47.72 C 13.78 49.13 13.73 50.54 13.68 51.96 C 12.52 53.18 11.37 54.41 10.22 55.63 C 9.13 51.81 8.56 47.86 8.25 43.90 Z" />
</g>
<g id="#e696bdff">
<path fill="#e696bd" opacity="1.00" d=" M 82.91 44.92 C 83.43 44.86 84.47 44.73 84.99 44.67 C 87.37 48.28 87.76 53.28 91.82 55.65 C 89.49 55.50 91.08 58.79 90.43 60.13 C 89.79 59.79 88.50 59.10 87.86 58.76 C 86.92 56.78 85.98 54.81 85.06 52.83 C 84.94 52.15 84.71 50.77 84.59 50.08 C 84.28 48.29 83.67 46.57 82.91 44.92 Z" />
</g>
<g id="#7d8893ff">
<path fill="#7d8893" opacity="1.00" d=" M 41.56 44.91 C 42.83 45.54 44.07 46.24 45.30 46.94 C 45.24 47.50 45.11 48.60 45.04 49.16 L 44.87 50.73 C 45.81 50.13 46.74 49.51 47.65 48.86 C 47.91 49.47 48.43 50.70 48.69 51.32 C 49.42 51.13 50.15 50.95 50.88 50.77 C 51.32 51.09 52.20 51.73 52.65 52.05 C 51.26 54.07 49.94 56.16 48.20 57.90 C 47.97 56.81 47.71 55.73 47.44 54.65 C 47.11 54.36 46.45 53.78 46.11 53.49 C 45.81 53.23 45.19 52.72 44.89 52.46 C 44.22 53.08 43.55 53.68 42.86 54.27 C 42.63 52.99 42.39 51.70 42.16 50.41 C 43.08 49.64 44.00 48.87 44.92 48.10 C 43.82 47.02 42.72 45.94 41.56 44.91 Z" />
<path fill="#7d8893" opacity="1.00" d=" M 59.40 75.71 C 60.37 74.53 61.36 73.36 62.46 72.29 C 63.44 76.12 62.75 80.10 61.71 83.84 C 61.44 81.01 61.59 78.03 60.02 75.51 C 58.02 78.57 56.88 82.03 55.85 85.50 C 55.35 85.54 54.34 85.61 53.84 85.65 C 54.87 82.56 56.62 79.74 57.29 76.53 C 57.82 76.33 58.87 75.91 59.40 75.71 Z" />
</g>
<g id="#e89fc1ff">
<path fill="#e89fc1" opacity="1.00" d=" M 45.04 49.16 C 46.74 47.22 48.83 45.46 51.52 45.27 C 50.22 46.45 48.97 47.69 47.65 48.86 C 46.74 49.51 45.81 50.13 44.87 50.73 L 45.04 49.16 Z" />
</g>
<g id="#e5e3e8ff">
<path fill="#e5e3e8" opacity="1.00" d=" M 24.14 50.04 C 24.04 49.39 23.85 48.11 23.76 47.46 C 24.08 48.01 24.71 49.12 25.03 49.67 L 26.88 47.86 C 27.01 48.26 27.26 49.06 27.39 49.47 L 27.47 49.78 L 27.14 50.10 C 25.27 49.80 21.61 51.30 24.26 53.20 L 25.22 52.92 C 26.62 54.57 26.39 56.79 26.61 58.79 C 28.81 60.57 29.93 63.06 29.28 65.88 L 29.25 66.59 C 29.15 66.95 28.95 67.68 28.85 68.04 C 28.25 66.34 27.70 64.61 26.77 63.06 C 26.22 61.73 24.64 61.46 23.47 60.91 C 23.24 60.06 22.78 58.36 22.56 57.52 C 22.82 57.24 23.35 56.68 23.61 56.41 C 23.62 54.82 22.87 53.45 21.95 52.22 C 21.86 54.20 23.29 56.62 21.56 58.28 C 20.81 58.01 19.30 57.47 18.55 57.20 C 18.13 58.45 17.71 59.71 17.29 60.97 C 15.58 59.89 13.81 58.86 11.88 58.22 C 11.62 57.99 11.09 57.55 10.83 57.33 C 10.68 56.90 10.37 56.06 10.22 55.63 C 11.37 54.41 12.52 53.18 13.68 51.96 C 14.06 52.34 14.83 53.12 15.21 53.50 C 15.89 52.89 16.56 52.29 17.24 51.69 C 18.94 51.84 20.64 51.97 22.34 52.07 C 22.27 51.36 22.13 49.94 22.06 49.22 L 24.14 50.04 Z" />
</g>
<g id="#b1b4beff">
<path fill="#b1b4be" opacity="1.00" d=" M 53.45 47.10 C 56.07 46.14 54.09 49.91 52.55 49.79 C 51.10 49.41 52.62 47.41 53.45 47.10 Z" />
</g>
<g id="#ffffffff">
<path fill="#ffffff" opacity="1.00" d=" M 35.33 48.12 C 35.40 48.33 35.53 48.77 35.60 48.98 C 35.53 48.77 35.40 48.33 35.33 48.12 Z" />
</g>
<g id="#b7ab93ff">
<path fill="#b7ab93" opacity="1.00" d=" M 65.59 49.97 C 65.15 47.73 68.22 48.49 66.57 50.21 L 65.59 49.97 Z" />
</g>
<g id="#4e4e56ff">
<path fill="#4e4e56" opacity="1.00" d=" M 27.39 49.47 L 27.50 49.46 C 28.27 49.43 29.81 49.37 30.58 49.34 L 30.85 49.83 C 31.11 50.32 31.63 51.31 31.89 51.81 C 31.28 51.94 30.06 52.19 29.45 52.32 C 28.95 51.68 27.97 50.41 27.47 49.78 L 27.39 49.47 Z" />
<path fill="#4e4e56" opacity="1.00" d=" M 30.07 67.78 C 31.34 69.22 32.88 70.50 33.74 72.26 C 34.34 74.44 34.35 76.72 34.52 78.96 C 34.73 76.86 34.96 74.77 35.24 72.69 C 37.17 73.14 37.19 75.15 37.64 76.72 C 38.22 76.06 38.80 75.40 39.38 74.74 C 39.71 75.44 40.04 76.15 40.35 76.86 C 40.71 77.77 41.07 78.69 41.41 79.61 C 43.08 79.33 44.75 79.06 46.41 78.74 C 44.81 80.46 43.20 82.17 41.58 83.88 L 43.00 85.02 C 36.08 83.71 29.66 80.59 24.11 76.30 C 24.71 74.84 25.33 73.39 25.84 71.90 C 25.80 71.50 25.72 70.71 25.69 70.31 L 25.54 67.90 C 26.74 69.23 27.92 70.58 29.07 71.96 C 28.83 73.18 28.59 74.41 28.35 75.63 C 29.34 76.50 30.32 77.36 31.31 78.22 C 31.90 74.68 31.10 71.15 30.07 67.78 Z" />
</g>
<g id="#cccbd4ff">
<path fill="#cccbd4" opacity="1.00" d=" M 55.21 48.79 C 56.14 49.20 57.09 49.59 58.04 49.96 C 58.63 50.11 59.81 50.41 60.40 50.55 C 60.72 51.01 61.37 51.92 61.69 52.37 C 60.30 52.66 58.92 52.98 57.56 53.34 C 57.35 53.65 56.95 54.27 56.74 54.58 C 55.90 55.01 55.04 55.40 54.20 55.82 C 54.19 56.05 54.16 56.50 54.15 56.72 C 54.12 59.69 53.71 62.71 52.01 65.23 C 50.76 65.45 49.56 65.93 49.19 67.27 C 49.29 70.24 49.17 73.67 51.45 75.94 C 50.21 77.16 48.93 78.35 47.63 79.51 C 48.93 79.05 50.24 78.65 51.59 78.38 C 51.78 77.83 52.15 76.74 52.33 76.19 L 53.73 77.55 C 51.33 80.19 50.05 84.20 46.36 85.37 L 44.75 85.84 C 44.53 84.28 44.43 82.73 45.77 81.62 C 44.79 82.70 43.85 83.83 43.00 85.02 L 41.58 83.88 C 43.20 82.17 44.81 80.46 46.41 78.74 C 46.64 78.51 47.08 78.03 47.30 77.80 C 45.82 75.06 42.69 76.04 40.35 76.86 C 40.04 76.15 39.71 75.44 39.38 74.74 L 39.00 73.84 C 39.07 73.50 39.21 72.82 39.28 72.48 C 39.76 72.71 40.71 73.18 41.18 73.42 C 42.39 72.08 43.59 70.75 44.79 69.41 C 43.50 68.50 42.20 67.59 40.91 66.67 C 42.49 64.29 44.36 62.11 46.15 59.89 C 46.83 59.22 47.51 58.55 48.20 57.90 C 49.94 56.16 51.26 54.07 52.65 52.05 C 53.46 50.93 54.34 49.86 55.21 48.79 Z" />
</g>
<g id="#b11111ff">
<path fill="#b11111" opacity="1.00" d=" M 24.26 53.20 C 21.61 51.30 25.27 49.80 27.14 50.10 C 26.67 51.16 26.03 52.10 25.22 52.92 L 24.26 53.20 Z" />
</g>
<g id="#f5f5f5ff">
<path fill="#f5f5f5" opacity="1.00" d=" M 30.85 49.83 C 31.80 49.89 33.70 50.01 34.65 50.07 C 33.54 50.90 32.43 51.73 31.32 52.56 C 31.85 53.32 32.38 54.08 32.92 54.84 C 32.55 54.83 31.81 54.81 31.45 54.81 C 31.04 54.64 30.24 54.30 29.84 54.13 C 29.53 54.04 28.92 53.88 28.62 53.79 C 28.83 53.43 29.24 52.69 29.45 52.32 C 30.06 52.19 31.28 51.94 31.89 51.81 C 31.63 51.31 31.11 50.32 30.85 49.83 Z" />
<path fill="#f5f5f5" opacity="1.00" d=" M 33.94 54.28 C 33.80 52.59 34.56 51.83 36.21 51.99 C 35.89 52.58 35.23 53.77 34.91 54.36 L 33.94 54.28 Z" />
<path fill="#f5f5f5" opacity="1.00" d=" M 39.28 72.48 C 39.78 70.53 40.22 68.56 40.91 66.67 C 42.20 67.59 43.50 68.50 44.79 69.41 C 43.59 70.75 42.39 72.08 41.18 73.42 C 40.71 73.18 39.76 72.71 39.28 72.48 Z" />
</g>
<g id="#ecedefff">
<path fill="#ecedef" opacity="1.00" d=" M 64.62 50.67 L 65.59 49.97 L 66.57 50.21 L 66.91 51.15 C 66.38 51.46 65.32 52.08 64.79 52.39 C 64.74 51.96 64.66 51.10 64.62 50.67 Z" />
</g>
<g id="#ebebecff">
<path fill="#ebebec" opacity="1.00" d=" M 78.62 51.09 C 78.37 54.11 78.94 57.24 77.91 60.16 C 76.80 63.06 76.31 66.13 75.84 69.19 C 75.36 72.31 74.58 75.37 73.82 78.44 C 71.90 78.37 69.99 78.21 68.09 77.98 C 66.24 77.47 63.94 77.12 63.43 74.91 C 66.27 75.02 69.11 75.41 71.95 75.20 C 74.35 73.72 73.65 70.42 73.92 68.03 C 73.25 69.13 72.58 70.24 71.91 71.35 C 71.81 68.36 71.34 65.01 73.44 62.54 C 73.94 61.98 74.94 60.88 75.44 60.32 C 74.83 60.45 73.61 60.72 73.00 60.85 C 72.14 59.88 72.60 58.56 72.57 57.41 C 73.73 57.88 74.89 58.35 76.05 58.82 C 75.76 58.01 75.48 57.20 75.21 56.39 C 75.56 55.12 75.42 53.85 74.92 52.64 C 76.16 52.12 77.39 51.60 78.62 51.09 Z" />
</g>
<g id="#41403fff">
<path fill="#41403f" opacity="1.00" d=" M 36.21 51.99 C 37.97 51.86 39.72 51.71 41.48 51.57 C 41.36 52.25 41.10 53.61 40.98 54.29 C 39.91 57.50 38.77 60.69 38.04 63.99 C 37.96 64.45 37.82 65.35 37.75 65.80 C 37.68 66.42 37.54 67.65 37.47 68.27 C 37.03 65.69 36.29 63.17 35.39 60.72 C 35.09 63.00 34.83 65.28 34.49 67.55 C 34.31 67.30 33.96 66.81 33.78 66.57 C 33.81 64.78 33.94 62.99 33.89 61.20 C 33.66 59.07 33.31 56.95 32.92 54.84 L 33.31 55.16 C 34.55 56.09 35.08 55.82 34.91 54.36 C 35.23 53.77 35.89 52.58 36.21 51.99 Z" />
</g>
<g id="#d8d6d7ff">
<path fill="#d8d6d7" opacity="1.00" d=" M 68.46 52.78 C 70.02 52.65 71.59 52.54 73.16 52.44 C 73.21 53.65 73.25 54.87 73.29 56.09 C 72.67 55.68 71.42 54.86 70.80 54.46 C 70.01 53.91 69.23 53.35 68.46 52.78 Z" />
</g>
<g id="#dcd1daff">
<path fill="#dcd1da" opacity="1.00" d=" M 79.75 52.04 C 82.52 51.12 84.20 54.88 84.93 56.97 C 82.81 56.54 78.74 54.70 79.75 52.04 Z" />
</g>
<g id="#becfb9ff">
<path fill="#becfb9" opacity="1.00" d=" M 57.56 53.34 C 58.92 52.98 60.30 52.66 61.69 52.37 C 62.99 52.80 64.29 53.22 65.61 53.61 C 66.17 53.77 67.31 54.10 67.88 54.26 C 66.97 54.97 66.07 55.68 65.18 56.42 C 63.39 54.50 61.05 55.16 59.08 56.39 C 58.34 56.69 57.61 56.99 56.88 57.30 C 56.85 56.62 56.78 55.26 56.74 54.58 C 56.95 54.27 57.35 53.65 57.56 53.34 Z" />
</g>
<g id="#abd1c2ff">
<path fill="#abd1c2" opacity="1.00" d=" M 65.61 53.61 C 66.11 53.43 67.12 53.06 67.62 52.88 L 68.46 52.78 C 69.23 53.35 70.01 53.91 70.80 54.46 L 70.36 54.81 C 69.10 55.78 67.92 56.85 66.78 57.94 C 66.37 57.80 65.56 57.51 65.15 57.36 L 65.18 56.42 C 66.07 55.68 66.97 54.97 67.88 54.26 C 67.31 54.10 66.17 53.77 65.61 53.61 Z" />
</g>
<g id="#ce0608ff">
<path fill="#ce0608" opacity="1.00" d=" M 33.94 54.28 L 34.91 54.36 C 35.08 55.82 34.55 56.09 33.31 55.16 L 33.94 54.28 Z" />
</g>
<g id="#cd97b1ff">
<path fill="#cd97b1" opacity="1.00" d=" M 46.11 53.49 C 46.45 53.78 47.11 54.36 47.44 54.65 C 47.71 55.73 47.97 56.81 48.20 57.90 C 47.51 58.55 46.83 59.22 46.15 59.89 C 46.19 57.75 46.13 55.62 46.11 53.49 Z" />
</g>
<g id="#b21d21ff">
<path fill="#b21d21" opacity="1.00" d=" M 31.45 54.81 C 31.81 54.81 32.55 54.83 32.92 54.84 C 33.31 56.95 33.66 59.07 33.89 61.20 C 33.12 61.31 31.59 61.53 30.82 61.64 C 30.59 61.20 30.13 60.32 29.90 59.88 C 31.82 59.01 32.17 57.28 31.30 55.46 L 31.45 54.81 Z" />
</g>
<g id="#efedefff">
<path fill="#efedef" opacity="1.00" d=" M 54.20 55.82 C 55.04 55.40 55.90 55.01 56.74 54.58 C 56.78 55.26 56.85 56.62 56.88 57.30 C 56.90 57.88 56.93 59.04 56.95 59.62 C 56.00 58.66 55.05 57.71 54.15 56.72 C 54.16 56.50 54.19 56.05 54.20 55.82 Z" />
</g>
<g id="#879b90ff">
<path fill="#879b90" opacity="1.00" d=" M 59.08 56.39 C 61.05 55.16 63.39 54.50 65.18 56.42 L 65.15 57.36 L 65.14 58.15 C 64.50 57.60 63.85 57.05 63.19 56.52 C 61.82 56.65 60.43 56.77 59.08 56.39 Z" />
</g>
<g id="#78b3b4ff">
<path fill="#78b3b4" opacity="1.00" d=" M 66.78 57.94 C 67.92 56.85 69.10 55.78 70.36 54.81 C 70.27 55.29 70.09 56.26 70.00 56.74 C 69.35 57.76 68.67 58.75 67.94 59.71 C 67.49 59.74 66.59 59.80 66.14 59.82 C 65.89 59.41 65.39 58.57 65.14 58.15 L 65.15 57.36 C 65.56 57.51 66.37 57.80 66.78 57.94 Z" />
</g>
<g id="#77202aff">
<path fill="#77202a" opacity="1.00" d=" M 29.34 55.85 C 29.83 55.75 30.81 55.55 31.30 55.46 C 32.17 57.28 31.82 59.01 29.90 59.88 C 29.32 58.59 29.14 57.24 29.34 55.85 Z" />
</g>
<g id="#bbbac7ff">
<path fill="#bbbac7" opacity="1.00" d=" M 56.88 57.30 C 57.61 56.99 58.34 56.69 59.08 56.39 C 60.43 56.77 61.82 56.65 63.19 56.52 C 63.85 57.05 64.50 57.60 65.14 58.15 C 65.39 58.57 65.89 59.41 66.14 59.82 L 66.62 60.79 C 65.42 61.00 64.22 61.22 63.02 61.44 C 63.03 60.73 63.04 59.31 63.05 58.60 C 62.67 59.06 61.91 59.98 61.54 60.44 C 59.95 60.38 58.37 60.26 56.79 60.16 C 56.94 60.48 57.24 61.11 57.39 61.43 C 55.87 64.02 55.12 66.94 54.63 69.89 C 56.40 70.72 58.14 71.60 59.84 72.58 C 58.09 72.74 56.35 72.88 54.60 73.01 C 54.69 73.49 54.86 74.45 54.94 74.93 C 53.91 75.30 52.88 75.67 51.85 76.05 C 51.73 75.41 51.48 74.13 51.35 73.49 C 51.66 73.08 52.29 72.28 52.60 71.88 C 52.38 69.67 52.18 67.45 52.01 65.23 C 53.71 62.71 54.12 59.69 54.15 56.72 C 55.05 57.71 56.00 58.66 56.95 59.62 C 56.93 59.04 56.90 57.88 56.88 57.30 Z" />
</g>
<g id="#d2c9d0ff">
<path fill="#d2c9d0" opacity="1.00" d=" M 17.29 60.97 C 17.71 59.71 18.13 58.45 18.55 57.20 C 19.30 57.47 20.81 58.01 21.56 58.28 L 20.93 58.94 C 19.34 60.49 17.70 62.00 16.09 63.54 C 17.47 64.80 18.76 66.50 20.81 66.48 C 20.97 69.21 21.47 71.95 22.82 74.36 C 23.77 71.43 24.54 68.45 25.45 65.51 C 25.40 66.76 25.44 68.01 25.56 69.26 L 25.69 70.31 C 25.72 70.71 25.80 71.50 25.84 71.90 C 25.33 73.39 24.71 74.84 24.11 76.30 C 18.86 71.43 13.64 65.79 11.65 58.77 L 11.88 58.22 C 13.81 58.86 15.58 59.89 17.29 60.97 Z" />
</g>
<g id="#b08f90ff">
<path fill="#b08f90" opacity="1.00" d=" M 43.09 57.36 C 46.42 57.35 41.70 60.41 43.09 57.36 Z" />
</g>
<g id="#d1d2d3ff">
<path fill="#d1d2d3" opacity="1.00" d=" M 67.94 59.71 C 68.67 58.75 69.35 57.76 70.00 56.74 C 70.25 57.27 70.75 58.34 71.00 58.87 C 71.63 60.21 72.33 61.53 73.44 62.54 C 71.34 65.01 71.81 68.36 71.91 71.35 C 72.58 70.24 73.25 69.13 73.92 68.03 C 73.65 70.42 74.35 73.72 71.95 75.20 C 69.11 75.41 66.27 75.02 63.43 74.91 C 63.94 77.12 66.24 77.47 68.09 77.98 C 68.68 79.16 69.26 80.35 69.85 81.53 C 65.37 83.47 60.73 85.02 55.85 85.50 C 56.88 82.03 58.02 78.57 60.02 75.51 C 61.59 78.03 61.44 81.01 61.71 83.84 C 62.75 80.10 63.44 76.12 62.46 72.29 C 63.29 71.51 64.17 70.78 65.04 70.03 C 65.50 70.02 66.43 69.99 66.89 69.98 C 67.17 70.26 67.71 70.83 67.98 71.11 C 68.02 67.31 68.00 63.51 67.94 59.71 M 64.76 73.90 C 66.55 73.92 68.35 73.96 70.14 74.02 C 70.11 72.71 70.10 71.41 70.08 70.11 C 68.79 71.98 66.86 73.12 64.76 73.90 Z" />
</g>
<g id="#fdfdfeff">
<path fill="#fdfdfe" opacity="1.00" d=" M 70.00 56.74 L 70.81 57.03 C 70.86 57.49 70.96 58.41 71.00 58.87 C 70.75 58.34 70.25 57.27 70.00 56.74 Z" />
</g>
<g id="#cfcdd7ff">
<path fill="#cfcdd7" opacity="1.00" d=" M 80.58 57.02 C 83.09 57.17 85.65 57.47 87.86 58.76 C 88.50 59.10 89.79 59.79 90.43 60.13 C 89.24 62.32 88.05 64.52 86.74 66.65 C 85.62 65.95 84.48 65.27 83.39 64.52 C 81.56 63.18 79.93 61.59 78.37 59.94 C 78.78 59.76 79.59 59.40 80.00 59.22 C 80.20 58.49 80.40 57.76 80.58 57.02 Z" />
</g>
<g id="#e59ebeff">
<path fill="#e59ebe" opacity="1.00" d=" M 20.93 58.94 C 21.34 58.58 22.15 57.87 22.56 57.52 C 22.78 58.36 23.24 60.06 23.47 60.91 C 23.89 62.45 24.38 64.07 25.53 65.25 L 25.45 65.51 C 24.54 68.45 23.77 71.43 22.82 74.36 C 21.47 71.95 20.97 69.21 20.81 66.48 C 20.81 63.96 20.86 61.45 20.93 58.94 Z" />
</g>
<g id="#b5a8b7ff">
<path fill="#b5a8b7" opacity="1.00" d=" M 16.09 63.54 C 17.70 62.00 19.34 60.49 20.93 58.94 C 20.86 61.45 20.81 63.96 20.81 66.48 C 18.76 66.50 17.47 64.80 16.09 63.54 Z" />
</g>
<g id="#7db3b4ff">
<path fill="#7db3b4" opacity="1.00" d=" M 56.79 60.16 C 58.37 60.26 59.95 60.38 61.54 60.44 C 60.73 61.34 60.57 63.07 59.30 63.38 C 58.82 62.89 57.87 61.91 57.39 61.43 C 57.24 61.11 56.94 60.48 56.79 60.16 Z" />
</g>
<g id="#8295a0ff">
<path fill="#8295a0" opacity="1.00" d=" M 75.84 69.19 C 76.31 66.13 76.80 63.06 77.91 60.16 L 78.37 59.94 C 79.93 61.59 81.56 63.18 83.39 64.52 C 80.78 65.93 78.26 67.48 75.84 69.19 Z" />
</g>
<g id="#8e4e5dff">
<path fill="#8e4e5d" opacity="1.00" d=" M 30.82 61.64 C 31.59 61.53 33.12 61.31 33.89 61.20 C 33.94 62.99 33.81 64.78 33.78 66.57 C 32.66 65.01 31.71 63.34 30.82 61.64 Z" />
</g>
<g id="#7db2b5ff">
<path fill="#7db2b5" opacity="1.00" d=" M 63.02 61.44 C 64.22 61.22 65.42 61.00 66.62 60.79 C 66.69 61.33 66.83 62.41 66.90 62.95 C 66.52 63.02 65.74 63.17 65.36 63.25 L 65.23 63.98 C 64.69 63.86 63.60 63.61 63.06 63.49 C 63.05 62.98 63.03 61.95 63.02 61.44 Z" />
</g>
<g id="#a38770ff">
<path fill="#a38770" opacity="1.00" d=" M 65.36 63.25 C 65.74 63.17 66.52 63.02 66.90 62.95 L 66.98 63.76 C 66.54 63.81 65.67 63.92 65.23 63.98 L 65.36 63.25 Z" />
</g>
<g id="#a09fa3ff">
<path fill="#a09fa3" opacity="1.00" d=" M 38.04 63.99 C 40.80 62.73 40.23 67.38 37.75 65.80 C 37.82 65.35 37.96 64.45 38.04 63.99 Z" />
</g>
<g id="#e9daebff">
<path fill="#e9daeb" opacity="1.00" d=" M 49.19 67.27 C 49.56 65.93 50.76 65.45 52.01 65.23 C 52.18 67.45 52.38 69.67 52.60 71.88 C 52.29 72.28 51.66 73.08 51.35 73.49 C 50.96 71.31 50.18 69.24 49.19 67.27 Z" />
</g>
<g id="#a2947eff">
<path fill="#a2947e" opacity="1.00" d=" M 58.24 67.20 C 59.86 66.68 60.45 67.23 60.03 68.85 C 58.41 69.37 57.81 68.82 58.24 67.20 Z" />
</g>
<g id="#9d8d74ff">
<path fill="#9d8d74" opacity="1.00" d=" M 65.04 70.03 C 64.03 67.73 67.19 67.75 66.89 69.98 C 66.43 69.99 65.50 70.02 65.04 70.03 Z" />
</g>
<g id="#ebeceeff">
<path fill="#ebecee" opacity="1.00" d=" M 64.76 73.90 C 66.86 73.12 68.79 71.98 70.08 70.11 C 70.10 71.41 70.11 72.71 70.14 74.02 C 68.35 73.96 66.55 73.92 64.76 73.90 Z" />
</g>
<g id="#90939cff">
<path fill="#90939c" opacity="1.00" d=" M 40.35 76.86 C 42.69 76.04 45.82 75.06 47.30 77.80 C 47.08 78.03 46.64 78.51 46.41 78.74 C 44.75 79.06 43.08 79.33 41.41 79.61 C 41.07 78.69 40.71 77.77 40.35 76.86 Z" />
</g>
<g id="#a7a2aaea">
<path fill="#a7a2aa" opacity="0.92" d=" M 68.09 77.98 C 69.99 78.21 71.90 78.37 73.82 78.44 L 75.08 78.39 C 73.42 79.57 71.67 80.61 69.85 81.53 C 69.26 80.35 68.68 79.16 68.09 77.98 Z" />
</g>
</svg>
